<?xml version="1.0" encoding="iso-8859-1"?>
<!-- Generator: Adobe Illustrator 19.0.0, SVG Export Plug-In . SVG Version: 6.00 Build 0)  -->
<svg version="1.1" id="Capa_1" xmlns="http://www.w3.org/2000/svg" xmlns:xlink="http://www.w3.org/1999/xlink" x="0px" y="0px"
	 viewBox="0 0 512 512" style="enable-background:new 0 0 512 512;" xml:space="preserve">
<path style="fill:#FFDC64;" d="M504.5,288.065L504.5,288.065c0-26.244-15.768-48.802-38.345-58.728
	c-4.232-1.86-7.048-5.852-7.88-10.399c-0.012-0.065-0.024-0.129-0.036-0.194c-1.186-6.447,2.419-12.81,8.474-15.318l31.141-12.899
	c-10.045-24.249-33.247-39.056-57.907-39.583c-4.612-0.099-8.734-2.697-11.243-6.568c-0.035-0.054-0.07-0.108-0.105-0.163
	c-3.576-5.504-2.688-12.778,1.953-17.419l23.837-23.837c-18.553-18.553-45.642-23.355-68.621-14.419
	c-4.306,1.675-9.114,0.849-12.915-1.777c-0.06-0.041-0.119-0.082-0.179-0.123c-5.397-3.72-7.353-10.773-4.844-16.829l12.891-31.122
	c-24.233-10.037-51.089-4.113-68.899,12.924c-3.331,3.187-8.073,4.261-12.581,3.3c-0.078-0.017-0.157-0.033-0.235-0.05
	c-6.421-1.362-10.94-7.136-10.94-13.7V7.5c-26.244,0-48.802,15.768-58.728,38.345c-1.86,4.232-5.852,7.048-10.399,7.88
	c-0.065,0.012-0.129,0.024-0.194,0.036c-6.447,1.186-12.81-2.419-15.318-8.474l-12.899-31.141
	c-24.249,10.045-39.056,33.247-39.583,57.907c-0.099,4.612-2.697,8.734-6.567,11.243c-0.054,0.035-0.108,0.07-0.162,0.105
	c-5.504,3.576-12.778,2.689-17.419-1.953l-23.838-23.837c-18.553,18.553-23.355,45.642-14.419,68.621
	c1.675,4.306,0.849,9.114-1.777,12.915c-0.041,0.059-0.082,0.119-0.123,0.179c-3.72,5.397-10.773,7.353-16.829,4.844l-31.122-12.891
	c-10.037,24.233-4.113,51.089,12.924,68.899c3.187,3.331,4.261,8.073,3.3,12.581c-0.017,0.078-0.033,0.157-0.05,0.235
	c-1.362,6.421-7.136,10.94-13.7,10.94H7.5c0,26.244,15.768,48.802,38.345,58.728c4.232,1.86,7.048,5.852,7.88,10.399
	c0.012,0.065,0.024,0.129,0.035,0.194c1.186,6.447-2.419,12.81-8.474,15.318l-31.141,12.899
	c10.045,24.249,33.247,39.056,57.907,39.583c4.612,0.099,8.734,2.697,11.243,6.568c0.035,0.054,0.07,0.108,0.106,0.163
	c3.576,5.504,2.688,12.778-1.953,17.419l-23.837,23.837v0.001c18.553,18.553,45.643,23.355,68.621,14.419
	c4.306-1.675,9.113-0.849,12.915,1.777c0.059,0.041,0.119,0.082,0.178,0.123c5.398,3.72,7.353,10.773,4.845,16.829l-12.891,31.122
	c24.233,10.037,51.089,4.113,68.899-12.924c3.331-3.187,8.073-4.261,12.581-3.3c0.078,0.017,0.157,0.033,0.235,0.05
	c6.421,1.362,10.94,7.136,10.94,13.7V504.5c26.244,0,48.802-15.768,58.728-38.345c1.86-4.232,5.852-7.048,10.399-7.88
	c0.065-0.012,0.129-0.024,0.194-0.036c6.447-1.186,12.81,2.419,15.318,8.474l12.899,31.141
	c24.249-10.045,39.056-33.247,39.583-57.907c0.099-4.612,2.697-8.734,6.568-11.243c0.054-0.035,0.108-0.07,0.163-0.105
	c5.504-3.576,12.778-2.688,17.419,1.953l23.837,23.837c18.553-18.553,23.356-45.643,14.419-68.622
	c-1.675-4.306-0.849-9.113,1.777-12.915c0.041-0.059,0.082-0.119,0.123-0.178c3.72-5.398,10.773-7.353,16.829-4.845l31.122,12.891
	v-0.001c10.037-24.233,4.113-51.088-12.924-68.899c-3.187-3.331-4.262-8.073-3.3-12.581c0.017-0.078,0.033-0.157,0.05-0.235
	c1.362-6.421,7.136-10.94,13.7-10.94H504.5V288.065z"/>
<path style="fill:#FFC850;" d="M125.012,79.666l-22.055-22.055c-18.552,18.553-23.355,45.642-14.419,68.621
	c1.675,4.307,0.849,9.114-1.777,12.916c-0.041,0.06-0.082,0.119-0.123,0.179c-3.72,5.397-10.773,7.353-16.829,4.844L38.687,131.28
	c-10.038,24.233-4.113,51.089,12.924,68.899c3.187,3.331,4.261,8.073,3.3,12.582c-0.017,0.078-0.033,0.157-0.05,0.235
	c-1.362,6.42-7.136,10.94-13.7,10.94H7.5c0,26.244,15.768,48.802,38.344,58.728c4.232,1.86,7.048,5.852,7.88,10.399
	c0.012,0.064,0.024,0.129,0.036,0.194c1.186,6.447-2.419,12.81-8.474,15.318l-31.141,12.899
	c10.045,24.249,33.247,39.056,57.907,39.583c4.612,0.099,8.734,2.697,11.243,6.568c0.035,0.054,0.07,0.108,0.105,0.163
	c3.576,5.504,2.688,12.778-1.953,17.419L57.61,409.044l0,0c18.552,18.552,45.642,23.355,68.621,14.419
	c4.306-1.675,9.113-0.849,12.915,1.777c0.059,0.041,0.119,0.082,0.178,0.123c5.398,3.72,7.353,10.773,4.845,16.829l-12.891,31.122
	c24.233,10.038,51.089,4.113,68.899-12.924c3.331-3.187,8.073-4.261,12.581-3.3c0.078,0.017,0.157,0.033,0.235,0.05
	c6.421,1.362,10.94,7.136,10.94,13.7v33.66c26.244,0,48.802-15.768,58.728-38.344c1.86-4.232,5.852-7.048,10.399-7.88
	c0.065-0.012,0.129-0.024,0.194-0.035c6.447-1.186,12.81,2.418,15.318,8.474l12.899,31.141
	c24.249-10.045,39.056-33.247,39.583-57.907c0.099-4.612,2.697-8.734,6.568-11.243c0.054-0.035,0.108-0.07,0.162-0.105
	c5.505-3.576,12.778-2.688,17.419,1.953l23.837,23.837c17.242-17.242,22.6-41.856,16.1-63.693
	C283.861,370.086,134.307,259.007,125.012,79.666z"/>
<circle style="fill:#959CB5;" cx="256" cy="256" r="134"/>
<path style="fill:#C7CFE2;" d="M256,122c-7.046,0-12.741,5.803-12.558,12.894c0.176,6.841,6.033,12.211,12.876,12.231
	c23.045,0.066,44.426,7.335,62.015,19.662v0.204c0,15.101,12.242,27.342,27.342,27.342l0,0
	c12.043,17.459,19.132,38.587,19.199,61.34c0.02,6.842,5.38,12.702,12.22,12.884C384.187,268.747,390,263.054,390,256
	C390,182.114,329.886,122,256,122z"/>
<circle style="fill:#FFF082;" cx="256" cy="256" r="104.03"/>
<circle style="fill:#FFDC64;" cx="256" cy="256" r="80.16"/>
<path d="M256,112.226c-79.277,0-143.774,64.497-143.774,143.774S176.723,399.774,256,399.774S399.774,335.277,399.774,256
	S335.277,112.226,256,112.226z M256,384.774c-71.006,0-128.774-57.768-128.774-128.774S184.994,127.226,256,127.226
	S384.774,184.994,384.774,256S327.006,384.774,256,384.774z"/>
<path d="M335.725,188.465c-3.341,2.448-4.066,7.141-1.618,10.482c13.492,18.419,20.008,41.178,18.349,64.084
	c-1.676,23.137-11.645,44.926-28.071,61.352c-18.856,18.856-43.616,28.282-68.384,28.28c-24.762-0.002-49.533-9.429-68.384-28.28
	c-37.707-37.707-37.707-99.061,0-136.768c16.426-16.426,38.215-26.396,61.353-28.071c22.909-1.661,45.666,4.857,64.084,18.349
	c3.342,2.448,8.036,1.723,10.482-1.619c2.448-3.342,1.723-8.035-1.618-10.482c-21.287-15.592-47.575-23.123-74.032-21.209
	c-26.73,1.936-51.901,13.452-70.875,32.426c-21.101,21.1-32.721,49.152-32.721,78.991s11.62,57.891,32.719,78.99
	c21.778,21.778,50.384,32.667,78.991,32.667s57.213-10.889,78.991-32.667c18.974-18.974,30.489-44.145,32.425-70.875
	c1.916-26.453-5.616-52.745-21.209-74.032C343.759,186.742,339.067,186.018,335.725,188.465z"/>
<path d="M469.174,222.471c-1.79-0.787-3.105-2.612-3.529-4.929l-0.029-0.155c-0.534-2.901,1.135-5.859,3.968-7.032l31.141-12.899
	c3.827-1.585,5.644-5.972,4.059-9.799c-10.873-26.25-36.26-43.604-64.676-44.211c-1.948-0.042-3.859-1.219-5.111-3.151l-0.108-0.167
	c-1.612-2.481-1.205-5.859,0.966-8.031l23.837-23.837c1.407-1.406,2.197-3.314,2.197-5.303s-0.79-3.897-2.197-5.303
	c-20.081-20.081-50.167-26.402-76.642-16.106c-1.821,0.709-4.04,0.35-5.944-0.965l-0.176-0.121
	c-2.432-1.676-3.345-4.949-2.171-7.783l12.891-31.122c0.761-1.838,0.761-3.903,0-5.74s-2.221-3.298-4.059-4.059
	c-26.225-10.862-56.432-5.198-76.954,14.434c-1.407,1.346-3.589,1.862-5.847,1.381l-0.229-0.049
	c-2.896-0.614-4.997-3.29-4.997-6.363V7.5c0-4.142-3.358-7.5-7.5-7.5c-28.409,0-54.156,16.81-65.594,42.826
	c-0.787,1.789-2.612,3.106-4.875,3.52l-0.105,0.019c-0.002,0-0.102,0.019-0.104,0.019c-2.903,0.534-5.859-1.135-7.032-3.968
	l-12.899-31.141c-0.761-1.838-2.221-3.298-4.059-4.059s-3.902-0.761-5.74,0c-26.25,10.873-43.604,36.26-44.211,64.676
	c-0.042,1.948-1.219,3.859-3.151,5.111l-0.167,0.108c-2.48,1.612-5.858,1.205-8.03-0.966L108.26,52.308
	c-2.929-2.929-7.678-2.929-10.606,0c-20.081,20.081-26.403,50.165-16.106,76.642c0.708,1.822,0.351,4.04-0.964,5.944l-0.122,0.176
	c-1.675,2.432-4.948,3.345-7.783,2.171L41.557,124.35c-1.838-0.762-3.902-0.761-5.74,0c-1.838,0.761-3.298,2.221-4.059,4.059
	c-10.863,26.226-5.197,56.432,14.434,76.954c1.346,1.407,1.863,3.587,1.382,5.843l-0.05,0.233c-0.614,2.895-3.29,4.997-6.363,4.997
	H7.5c-4.142,0-7.5,3.358-7.5,7.5c0,28.409,16.811,54.156,42.826,65.594c1.79,0.787,3.105,2.612,3.529,4.929l0.029,0.155
	c0.534,2.901-1.135,5.859-3.968,7.032l-31.141,12.899c-1.838,0.761-3.298,2.221-4.059,4.059s-0.761,3.903,0,5.74
	c10.873,26.25,36.26,43.603,64.676,44.212c1.948,0.042,3.859,1.219,5.111,3.151l0.108,0.167c1.612,2.481,1.205,5.858-0.967,8.03
	L52.308,403.74c-2.929,2.929-2.929,7.678,0,10.607c20.081,20.081,50.166,26.402,76.643,16.105c1.823-0.708,4.042-0.35,5.935,0.958
	c0.003,0.002,0.083,0.058,0.087,0.06l0.098,0.068c2.432,1.676,3.346,4.949,2.171,7.783l-12.891,31.122
	c-1.585,3.827,0.232,8.214,4.059,9.799c26.225,10.864,56.432,5.198,76.954-14.434c1.407-1.346,3.588-1.864,5.847-1.381l0.229,0.048
	c2.895,0.614,4.997,3.29,4.997,6.363V504.5c0,4.142,3.358,7.5,7.5,7.5c28.409,0,54.156-16.811,65.594-42.826
	c0.787-1.79,2.612-3.105,4.928-3.529l0.155-0.029c2.904-0.532,5.859,1.135,7.032,3.968l12.899,31.141
	c1.585,3.827,5.973,5.645,9.799,4.059c26.25-10.873,43.604-36.259,44.211-64.676c0.042-1.948,1.219-3.859,3.151-5.111l0.167-0.108
	c2.481-1.612,5.858-1.206,8.03,0.966l23.837,23.837c1.406,1.407,3.314,2.197,5.303,2.197s3.897-0.79,5.303-2.197
	c20.082-20.082,26.403-50.166,16.106-76.643c-0.708-1.822-0.35-4.041,0.956-5.932l0.13-0.188c1.676-2.432,4.949-3.345,7.783-2.171
	l31.122,12.891c3.826,1.585,8.214-0.232,9.799-4.059c10.863-26.226,5.197-56.432-14.434-76.953
	c-1.346-1.407-1.863-3.587-1.382-5.843l0.05-0.233c0.614-2.895,3.29-4.997,6.363-4.997H504.5c4.142,0,7.5-3.359,7.5-7.501
	C512,259.655,495.189,233.908,469.174,222.471z M470.839,280.565c-10.115,0-18.962,7.101-21.038,16.886l-0.047,0.224
	c-1.516,7.106,0.434,14.332,5.215,19.331c13.772,14.396,18.852,34.82,13.825,53.724l-23.732-9.83
	c-9.326-3.865-20.21-0.703-25.869,7.509l-0.125,0.181c-4.14,5.993-5.11,13.43-2.596,19.896c7.224,18.576,4.104,39.397-7.782,54.945
	l-18.182-18.182c-7.149-7.149-18.423-8.386-26.804-2.941l-0.161,0.104c-6.105,3.958-9.838,10.453-9.987,17.376
	c-0.426,19.938-11.277,37.988-28.216,47.808l-9.838-23.751c-3.863-9.327-13.788-14.789-23.614-12.979l-0.177,0.033
	c-7.173,1.312-13.123,5.887-15.915,12.239c-8.025,18.253-24.956,30.775-44.362,33.366v-25.663c0-10.115-7.101-18.962-16.891-21.039
	l-0.22-0.046c-1.587-0.338-3.179-0.504-4.752-0.504c-5.47,0-10.697,2.006-14.579,5.72c-14.396,13.772-34.821,18.851-53.725,13.825
	l9.831-23.733c3.864-9.328,0.702-20.21-7.598-25.93l-0.091-0.063c-5.994-4.14-13.431-5.11-19.896-2.597
	c-18.576,7.224-39.396,4.104-54.945-7.781l18.182-18.181c7.15-7.149,8.386-18.424,2.942-26.804l-0.104-0.161
	c-3.958-6.105-10.453-9.839-17.376-9.987c-19.937-0.427-37.988-11.278-47.808-28.217l23.751-9.838
	c9.327-3.863,14.786-13.791,12.98-23.604l-0.035-0.187c-1.312-7.173-5.887-13.123-12.239-15.915
	c-18.253-8.025-30.775-24.956-33.366-44.362h25.663c10.115,0,18.962-7.101,21.038-16.886l0.047-0.224
	c1.516-7.106-0.434-14.332-5.215-19.331c-13.772-14.396-18.852-34.821-13.825-53.725l23.732,9.83
	c9.329,3.864,20.21,0.702,25.876-7.52l0.117-0.169c4.14-5.993,5.111-13.431,2.597-19.896c-7.224-18.576-4.104-39.396,7.781-54.944
	l18.182,18.182c7.149,7.149,18.423,8.385,26.81,2.937l0.155-0.1c6.104-3.958,9.837-10.453,9.986-17.376
	c0.426-19.937,11.277-37.988,28.216-47.809l9.838,23.752c3.863,9.327,13.785,14.785,23.589,12.983l0.202-0.037
	c7.173-1.313,13.122-5.888,15.914-12.239c8.025-18.253,24.956-30.775,44.362-33.365v25.663c0,10.115,7.101,18.962,16.891,21.038
	l0.221,0.047c7.105,1.515,14.333-0.434,19.331-5.215c14.397-13.772,34.822-18.851,53.725-13.825l-9.828,23.73
	c-3.864,9.328-0.702,20.209,7.52,25.877l0.169,0.116c5.993,4.14,13.432,5.111,19.896,2.597c18.577-7.223,39.396-4.104,54.944,7.781
	l-18.182,18.182c-7.149,7.149-8.385,18.424-2.941,26.804l0.104,0.16c3.958,6.105,10.453,9.839,17.376,9.987
	c19.938,0.427,37.988,11.277,47.808,28.217l-23.752,9.839c-9.326,3.864-14.785,13.791-12.983,23.584l0.038,0.206
	c1.312,7.173,5.887,13.123,12.239,15.916c18.253,8.025,30.775,24.956,33.366,44.362L470.839,280.565L470.839,280.565z"/>
<g>
</g>
<g>
</g>
<g>
</g>
<g>
</g>
<g>
</g>
<g>
</g>
<g>
</g>
<g>
</g>
<g>
</g>
<g>
</g>
<g>
</g>
<g>
</g>
<g>
</g>
<g>
</g>
<g>
</g>
</svg>
